  0
SECTION
  2
HEADER
  9
$ACADVER
  1
AC1006
  9
$EXTMIN
 10
0.000000
 20
0.000000
 30
0.000000
  9
$EXTMAX
 10
350.000000
 20
350.000000
 30
0.000000
  0
ENDSEC
  0
SECTION
  2
ENTITIES
  0
POLYLINE
  8
0
 66
1
 70
1
  0
VERTEX
  8
0
 10
64.496663
 20
222.905346
 42
-0.000222
  0
VERTEX
  8
0
 10
60.018179
 20
217.044370
 42
-0.000142
  0
VERTEX
  8
0
 10
54.805995
 20
210.233488
 42
-0.000142
  0
VERTEX
  8
0
 10
49.692416
 20
203.559321
 42
-0.000266
  0
VERTEX
  8
0
 10
45.545022
 20
198.155346
 42
0.000518
  0
VERTEX
  8
0
 10
32.253230
 20
180.818288
 42
0.002841
  0
VERTEX
  8
0
 10
25.140118
 20
171.410129
 42
0.000797
  0
VERTEX
  8
0
 10
20.263226
 20
164.861196
 42
0.371813
  0
VERTEX
  8
0
 10
20.299585
 20
164.367082
 42
0.286113
  0
VERTEX
  8
0
 10
20.601712
 20
164.296958
 42
0.002325
  0
VERTEX
  8
0
 10
23.015554
 20
165.134361
 42
0.007339
  0
VERTEX
  8
0
 10
25.812822
 20
166.165768
 42
0.004545
  0
VERTEX
  8
0
 10
29.069319
 20
167.455213
 42
-0.013807
  0
VERTEX
  8
0
 10
38.840401
 20
171.116317
 42
-0.018318
  0
VERTEX
  8
0
 10
47.924969
 20
173.869394
 42
-0.020554
  0
VERTEX
  8
0
 10
55.964970
 20
175.637928
 42
-0.040024
  0
VERTEX
  8
0
 10
62.500000
 20
176.263353
 42
-0.052048
  0
VERTEX
  8
0
 10
68.738291
 20
175.709228
 42
-0.060654
  0
VERTEX
  8
0
 10
74.395832
 20
173.873502
 42
-0.055754
  0
VERTEX
  8
0
 10
79.812010
 20
170.580252
 42
-0.035182
  0
VERTEX
  8
0
 10
85.340983
 20
165.651771
 42
0.000000
  0
VERTEX
  8
0
 10
90.360762
 20
160.500000
 42
0.000000
  0
VERTEX
  8
0
 10
101.229189
 20
160.859707
 42
-0.027729
  0
VERTEX
  8
0
 10
110.741295
 20
160.646988
 42
-0.051392
  0
VERTEX
  8
0
 10
118.331949
 20
159.261821
 42
-0.054481
  0
VERTEX
  8
0
 10
125.183150
 20
156.429198
 42
-0.035488
  0
VERTEX
  8
0
 10
132.388675
 20
151.791889
 42
-0.036962
  0
VERTEX
  8
0
 10
138.851020
 20
146.161793
 42
-0.008500
  0
VERTEX
  8
0
 10
148.854295
 20
135.704727
 42
-0.009069
  0
VERTEX
  8
0
 10
159.537984
 20
123.720458
 42
-0.011310
  0
VERTEX
  8
0
 10
169.000000
 20
112.193463
 42
0.000000
  0
VERTEX
  8
0
 10
175.500000
 20
103.899274
 42
0.000000
  0
VERTEX
  8
0
 10
177.500000
 20
106.287651
 42
0.001474
  0
VERTEX
  8
0
 10
178.782132
 20
107.827963
 42
0.000127
  0
VERTEX
  8
0
 10
182.039899
 20
111.767338
 42
0.000168
  0
VERTEX
  8
0
 10
185.923087
 20
116.468638
 42
0.000130
  0
VERTEX
  8
0
 10
190.146465
 20
121.588014
 42
-0.012642
  0
VERTEX
  8
0
 10
200.138510
 20
133.100564
 42
-0.014015
  0
VERTEX
  8
0
 10
210.371700
 20
143.693632
 42
-0.013714
  0
VERTEX
  8
0
 10
219.582974
 20
152.227165
 42
-0.063172
  0
VERTEX
  8
0
 10
225.600366
 20
156.287779
 42
-0.036549
  0
VERTEX
  8
0
 10
231.245109
 20
158.637036
 42
-0.036970
  0
VERTEX
  8
0
 10
237.150311
 20
160.128593
 42
-0.033280
  0
VERTEX
  8
0
 10
243.743473
 20
160.836542
 42
-0.021038
  0
VERTEX
  8
0
 10
251.481749
 20
160.823860
 42
0.000000
  0
VERTEX
  8
0
 10
261.261416
 20
160.396131
 42
0.000000
  0
VERTEX
  8
0
 10
266.378669
 20
165.806871
 42
-0.043665
  0
VERTEX
  8
0
 10
272.777988
 20
171.487719
 42
-0.071434
  0
VERTEX
  8
0
 10
279.144147
 20
174.933327
 42
-0.074826
  0
VERTEX
  8
0
 10
286.004510
 20
176.353237
 42
-0.052939
  0
VERTEX
  8
0
 10
293.872835
 20
175.951121
 42
-0.029147
  0
VERTEX
  8
0
 10
302.734015
 20
174.014972
 42
-0.011736
  0
VERTEX
  8
0
 10
314.586879
 20
170.389119
 42
-0.009273
  0
VERTEX
  8
0
 10
325.930334
 20
166.390784
 42
-0.074702
  0
VERTEX
  8
0
 10
330.750000
 20
163.716622
 42
0.033150
  0
VERTEX
  8
0
 10
331.230193
 20
163.395519
 42
0.077147
  0
VERTEX
  8
0
 10
331.632812
 20
163.239756
 42
0.165818
  0
VERTEX
  8
0
 10
331.889586
 20
163.269024
 42
0.289899
  0
VERTEX
  8
0
 10
332.000000
 20
163.443455
 42
0.162191
  0
VERTEX
  8
0
 10
331.834377
 20
163.940604
 42
0.000215
  0
VERTEX
  8
0
 10
325.632155
 20
172.208678
 42
0.001801
  0
VERTEX
  8
0
 10
318.633372
 20
181.460706
 42
0.001105
  0
VERTEX
  8
0
 10
310.322230
 20
192.315900
 42
-0.000028
  0
VERTEX
  8
0
 10
301.584727
 20
203.677156
 42
-0.000032
  0
VERTEX
  8
0
 10
293.257791
 20
214.507218
 42
-0.000028
  0
VERTEX
  8
0
 10
286.204066
 20
223.683618
 42
-0.000187
  0
VERTEX
  8
0
 10
282.671646
 20
228.283139
 42
0.006186
  0
VERTEX
  8
0
 10
280.338593
 20
231.246676
 42
0.010068
  0
VERTEX
  8
0
 10
278.277268
 20
233.696809
 42
0.004090
  0
VERTEX
  8
0
 10
276.487574
 20
235.705751
 42
0.330325
  0
VERTEX
  8
0
 10
276.099416
 20
235.783139
 42
0.035026
  0
VERTEX
  8
0
 10
275.656908
 20
235.534855
 42
0.000309
  0
VERTEX
  8
0
 10
272.444829
 20
233.421417
 42
0.001072
  0
VERTEX
  8
0
 10
268.759430
 20
230.981938
 42
0.000692
  0
VERTEX
  8
0
 10
264.500000
 20
228.140835
 42
-0.012710
  0
VERTEX
  8
0
 10
255.001355
 20
222.129837
 42
-0.014892
  0
VERTEX
  8
0
 10
245.691273
 20
216.934292
 42
-0.016033
  0
VERTEX
  8
0
 10
236.828373
 20
212.684012
 42
-0.022811
  0
VERTEX
  8
0
 10
228.684297
 20
209.530064
 42
-0.023752
  0
VERTEX
  8
0
 10
222.023567
 20
207.640865
 42
-0.011250
  0
VERTEX
  8
0
 10
213.285198
 20
205.811401
 42
-0.010874
  0
VERTEX
  8
0
 10
204.731612
 20
204.412315
 42
-0.034825
  0
VERTEX
  8
0
 10
198.971255
 20
204.004021
 42
0.000000
  0
VERTEX
  8
0
 10
195.442509
 20
204.000000
 42
0.000000
  0
VERTEX
  8
0
 10
193.444010
 20
213.750000
 42
0.000000
  0
VERTEX
  8
0
 10
191.445510
 20
223.500000
 42
0.000000
  0
VERTEX
  8
0
 10
189.100830
 20
217.250000
 42
0.000000
  0
VERTEX
  8
0
 10
186.756150
 20
211.000000
 42
0.000000
  0
VERTEX
  8
0
 10
175.540497
 20
211.000000
 42
0.000000
  0
VERTEX
  8
0
 10
164.324844
 20
211.000000
 42
0.000000
  0
VERTEX
  8
0
 10
162.455336
 20
216.500000
 42
0.010148
  0
VERTEX
  8
0
 10
161.690716
 20
218.608069
 42
0.015897
  0
VERTEX
  8
0
 10
160.939622
 20
220.384375
 42
0.010049
  0
VERTEX
  8
0
 10
160.254564
 20
221.795602
 42
0.281817
  0
VERTEX
  8
0
 10
159.920723
 20
222.000000
 42
0.302414
  0
VERTEX
  8
0
 10
159.628244
 20
221.805294
 42
0.020423
  0
VERTEX
  8
0
 10
159.262015
 20
220.818207
 42
0.023848
  0
VERTEX
  8
0
 10
158.906946
 20
219.518837
 42
0.015126
  0
VERTEX
  8
0
 10
158.612293
 20
217.976876
 42
-0.005007
  0
VERTEX
  8
0
 10
158.288165
 20
216.072415
 42
-0.002398
  0
VERTEX
  8
0
 10
157.835766
 20
213.633272
 42
-0.002377
  0
VERTEX
  8
0
 10
157.339140
 20
211.091336
 42
-0.003391
  0
VERTEX
  8
0
 10
156.872187
 20
208.839632
 42
0.000000
  0
VERTEX
  8
0
 10
155.775405
 20
203.725513
 42
0.000000
  0
VERTEX
  8
0
 10
148.275364
 20
204.359499
 42
-0.035763
  0
VERTEX
  8
0
 10
132.527516
 20
206.833481
 42
-0.036994
  0
VERTEX
  8
0
 10
117.475974
 20
211.510504
 42
-0.033177
  0
VERTEX
  8
0
 10
101.935784
 20
218.856105
 42
-0.020398
  0
VERTEX
  8
0
 10
84.657929
 20
229.417795
 42
0.000709
  0
VERTEX
  8
0
 10
80.872783
 20
231.941474
 42
0.001163
  0
VERTEX
  8
0
 10
77.659594
 20
234.066477
 42
0.000098
  0
VERTEX
  8
0
 10
74.774351
 20
235.964159
 42
0.146430
  0
VERTEX
  8
0
 10
74.654592
 20
236.000000
 42
0.231701
  0
VERTEX
  8
0
 10
74.548765
 20
235.948178
 42
0.000074
  0
VERTEX
  8
0
 10
71.604178
 20
232.153445
 42
0.001205
  0
VERTEX
  8
0
 10
68.341267
 20
227.926212
 42
0.000729
  0
SEQEND
  0
ENDSEC
  0
EOF
